<svg width="20" height="20" viewBox="0 0 20 20" fill="none" xmlns="http://www.w3.org/2000/svg">
<rect x="0.5" y="0.5" width="19" height="19" rx="9.5" fill="#FCF9F5"/>
<rect x="0.5" y="0.5" width="19" height="19" rx="9.5" stroke="#54634B"/>
<path d="M13.9583 11.9445H7.15274C7.02381 11.9445 6.90017 11.8933 6.80901 11.8022C6.71784 11.711 6.66663 11.5874 6.66663 11.4584C6.66663 11.3295 6.71784 11.2059 6.80901 11.1147C6.90017 11.0235 7.02381 10.9723 7.15274 10.9723H12.2277C12.5528 10.9723 12.8685 10.8638 13.1248 10.6639C13.3811 10.4639 13.5632 10.1841 13.6423 9.86885L14.4444 6.71399C14.4626 6.64225 14.4642 6.56729 14.449 6.49484C14.4339 6.42239 14.4024 6.35436 14.3569 6.29594C14.3096 6.23602 14.2489 6.18807 14.1797 6.15598C14.1104 6.12388 14.0346 6.10855 13.9583 6.11121H7.03607C6.93578 5.82754 6.7502 5.58184 6.50478 5.40778C6.25936 5.23372 5.96611 5.13984 5.66524 5.13899H5.20829C5.07937 5.13899 4.95573 5.19021 4.86456 5.28137C4.7734 5.37253 4.72218 5.49618 4.72218 5.6251C4.72218 5.75403 4.7734 5.87767 4.86456 5.96884C4.95573 6.06 5.07937 6.11121 5.20829 6.11121H5.66524C5.77628 6.10798 5.88509 6.14288 5.97353 6.2101C6.06198 6.27732 6.12473 6.3728 6.15135 6.48066L6.18052 6.71399L7.02149 10.0001C6.63471 10.0175 6.2707 10.1878 6.00951 10.4736C5.74833 10.7594 5.61138 11.1373 5.62878 11.5241C5.64619 11.9108 5.81652 12.2749 6.10232 12.536C6.38812 12.7972 6.76596 12.9342 7.15274 12.9168H7.24024C7.16029 13.137 7.1346 13.3733 7.16534 13.6056C7.19609 13.8379 7.28236 14.0594 7.41685 14.2513C7.55135 14.4432 7.7301 14.5999 7.93798 14.708C8.14586 14.8162 8.37674 14.8726 8.61107 14.8726C8.8454 14.8726 9.07628 14.8162 9.28416 14.708C9.49204 14.5999 9.6708 14.4432 9.80529 14.2513C9.93979 14.0594 10.0261 13.8379 10.0568 13.6056C10.0875 13.3733 10.0619 13.137 9.9819 12.9168H11.1291C11.0492 13.137 11.0235 13.3733 11.0542 13.6056C11.085 13.8379 11.1712 14.0594 11.3057 14.2513C11.4402 14.4432 11.619 14.5999 11.8269 14.708C12.0347 14.8162 12.2656 14.8726 12.5 14.8726C12.7343 14.8726 12.9652 14.8162 13.1731 14.708C13.3809 14.5999 13.5597 14.4432 13.6942 14.2513C13.8287 14.0594 13.9149 13.8379 13.9457 13.6056C13.9764 13.3733 13.9507 13.137 13.8708 12.9168H13.9583C14.0872 12.9168 14.2109 12.8656 14.302 12.7744C14.3932 12.6832 14.4444 12.5596 14.4444 12.4307C14.4444 12.3017 14.3932 12.1781 14.302 12.0869C14.2109 11.9958 14.0872 11.9445 13.9583 11.9445ZM13.3361 7.08344L12.6993 9.63066C12.6727 9.73852 12.6099 9.834 12.5214 9.90122C12.433 9.96844 12.3242 10.0033 12.2132 10.0001H8.01802L7.28885 7.08344H13.3361ZM8.61107 13.889C8.51493 13.889 8.42094 13.8605 8.341 13.8071C8.26106 13.7537 8.19876 13.6777 8.16196 13.5889C8.12517 13.5001 8.11554 13.4023 8.1343 13.308C8.15306 13.2137 8.19936 13.1271 8.26734 13.0591C8.33532 12.9912 8.42194 12.9449 8.51624 12.9261C8.61053 12.9074 8.70827 12.917 8.7971 12.9538C8.88592 12.9906 8.96184 13.0529 9.01526 13.1328C9.06867 13.2128 9.09718 13.3067 9.09718 13.4029C9.09718 13.5318 9.04597 13.6555 8.9548 13.7466C8.86364 13.8378 8.74 13.889 8.61107 13.889ZM12.5 13.889C12.4038 13.889 12.3098 13.8605 12.2299 13.8071C12.15 13.7537 12.0876 13.6777 12.0509 13.5889C12.0141 13.5001 12.0044 13.4023 12.0232 13.308C12.0419 13.2137 12.0882 13.1271 12.1562 13.0591C12.2242 12.9912 12.3108 12.9449 12.4051 12.9261C12.4994 12.9074 12.5972 12.917 12.686 12.9538C12.7748 12.9906 12.8507 13.0529 12.9041 13.1328C12.9576 13.2128 12.9861 13.3067 12.9861 13.4029C12.9861 13.5318 12.9349 13.6555 12.8437 13.7466C12.7525 13.8378 12.6289 13.889 12.5 13.889Z" fill="#54634B"/>
</svg>
