<svg width="24" height="24" viewBox="0 0 24 24" fill="none" xmlns="http://www.w3.org/2000/svg">
<path fill-rule="evenodd" clip-rule="evenodd" d="M6.43543 12.3208C5.92712 12.3208 5.45242 12.2515 5.0161 12.1141V20.4635H18.9872V12.1027C18.5538 12.2394 18.0821 12.3097 17.5773 12.3121C16.5406 12.3121 15.5553 11.9575 14.7733 11.3195C14.001 11.9508 13.0304 12.3061 12.0132 12.3142C10.9817 12.3078 10.0043 11.9534 9.22787 11.3221C8.4473 11.9609 7.46503 12.3178 6.43543 12.3208ZM2 7.92555C2.00148 9.20485 2.54958 10.3978 3.47754 11.2265V20.4635C3.47754 21.312 4.16757 22.002 5.01612 22.002H18.9873C19.8358 22.002 20.5258 21.312 20.5258 20.4635V11.2141C21.4529 10.3836 22.0003 9.18835 22 7.91408C22.0015 7.60757 21.8798 7.26425 20.6774 4.58958C20.3912 3.95308 20.12 3.34981 19.9453 2.937C19.7041 2.36774 19.1482 2 18.5292 2H5.51439C4.89911 2 4.3447 2.36456 4.10241 2.92781C3.93096 3.32596 3.66651 3.90405 3.38527 4.51883L3.35453 4.58603C2.12472 7.27233 2 7.61698 2 7.92555ZM3.53968 7.99747C3.56179 8.84815 3.95447 9.63485 4.60085 10.1626C4.67543 10.2013 4.74286 10.2519 4.80066 10.3118C4.88714 10.3708 4.97737 10.4255 5.07112 10.4755L5.07856 10.4796L5.0918 10.487C5.46743 10.6829 5.91856 10.7822 6.43318 10.7822C7.28585 10.7797 8.09007 10.4043 8.63774 9.75222C8.70982 9.66631 8.79983 9.59722 8.90145 9.54978C9.00306 9.50235 9.11383 9.47772 9.22597 9.47763C9.33804 9.47762 9.44951 9.5021 9.55112 9.54937C9.65272 9.59664 9.74277 9.66556 9.81495 9.75128C10.3589 10.397 11.1597 10.7704 12.012 10.7756C12.8466 10.7689 13.6419 10.3947 14.1835 9.74922C14.4754 9.40084 15.0689 9.40045 15.3622 9.74886C15.9088 10.4002 16.7149 10.7736 17.5735 10.7736C18.1051 10.7709 18.5708 10.6632 18.9543 10.453C19.055 10.398 19.152 10.3373 19.2449 10.2712C19.2781 10.2416 19.3139 10.2148 19.3519 10.1913C19.6244 9.97785 19.8575 9.71641 20.0389 9.41859C20.3033 8.98454 20.4488 8.48851 20.4606 7.9804C20.3468 7.6072 19.7049 6.1787 19.274 5.22046C18.9829 4.57288 18.7072 3.95893 18.5291 3.53858H5.51437C5.33407 3.95741 5.0516 4.57476 4.75334 5.22647L4.7498 5.2342C4.30997 6.19537 3.65769 7.62079 3.53968 7.99747ZM11.0371 19.31H12.9603V15.4636C12.9603 15.0388 12.6159 14.6943 12.191 14.6943H11.8064C11.3815 14.6943 11.0371 15.0388 11.0371 15.4636V19.31Z" fill="#FCF9F5"/>
<path d="M5.0161 12.1141L5.09119 11.8756L4.7661 11.7733V12.1141H5.0161ZM6.43543 12.3208V12.5708L6.43615 12.5708L6.43543 12.3208ZM5.0161 20.4635H4.7661V20.7135H5.0161V20.4635ZM18.9872 20.4635V20.7135H19.2372V20.4635H18.9872ZM18.9872 12.1027H19.2372V11.7616L18.912 11.8642L18.9872 12.1027ZM17.5773 12.3121V12.5621L17.5785 12.5621L17.5773 12.3121ZM14.7733 11.3195L14.9313 11.1258L14.7731 10.9967L14.6151 11.1259L14.7733 11.3195ZM12.0132 12.3142L12.0116 12.5642L12.0151 12.5642L12.0132 12.3142ZM9.22787 11.3221L9.38557 11.1282L9.22735 10.9995L9.06954 11.1287L9.22787 11.3221ZM3.47754 11.2265H3.72754V11.1146L3.64406 11.04L3.47754 11.2265ZM2 7.92555H1.75L1.75 7.92584L2 7.92555ZM20.5258 20.4635H20.2758V20.4635L20.5258 20.4635ZM20.5258 11.2141L20.359 11.0279L20.2758 11.1024V11.2141H20.5258ZM22 7.91408L21.75 7.91286V7.91413L22 7.91408ZM20.6774 4.58958L20.9054 4.48708L20.9054 4.48705L20.6774 4.58958ZM19.9453 2.937L20.1755 2.83958L20.1755 2.83948L19.9453 2.937ZM4.10241 2.92781L4.33202 3.02669L4.33206 3.0266L4.10241 2.92781ZM3.38527 4.51883L3.15793 4.41483L3.15793 4.41483L3.38527 4.51883ZM3.35453 4.58603L3.58184 4.69009L3.58187 4.69003L3.35453 4.58603ZM4.60085 10.1626L4.44275 10.3562L4.46273 10.3725L4.48563 10.3844L4.60085 10.1626ZM3.53968 7.99747L3.30112 7.92272L3.28869 7.9624L3.28977 8.00396L3.53968 7.99747ZM4.80066 10.3118L4.62069 10.4853L4.63854 10.5039L4.6598 10.5183L4.80066 10.3118ZM5.07112 10.4755L5.19152 10.2564L5.18877 10.2549L5.07112 10.4755ZM5.07856 10.4796L5.20035 10.2612L5.19896 10.2605L5.07856 10.4796ZM5.0918 10.487L4.96997 10.7054L4.9762 10.7086L5.0918 10.487ZM6.43318 10.7822V11.0322L6.4339 11.0322L6.43318 10.7822ZM8.63774 9.75222L8.82918 9.91301L8.82926 9.91291L8.63774 9.75222ZM9.22597 9.47763L9.22594 9.22763H9.22577L9.22597 9.47763ZM9.81495 9.75128L9.62371 9.9123L9.62375 9.91235L9.81495 9.75128ZM12.012 10.7756L12.0105 11.0256L12.014 11.0256L12.012 10.7756ZM14.1835 9.74922L14.375 9.90992L14.3751 9.90977L14.1835 9.74922ZM15.3622 9.74886L15.5537 9.58816L15.5535 9.58783L15.3622 9.74886ZM17.5735 10.7736V11.0236L17.5748 11.0236L17.5735 10.7736ZM18.9543 10.453L18.8345 10.2336L18.8342 10.2337L18.9543 10.453ZM19.2449 10.2712L19.3899 10.4749L19.401 10.4669L19.4113 10.4578L19.2449 10.2712ZM19.3519 10.1913L19.4836 10.4038L19.4953 10.3966L19.5061 10.3881L19.3519 10.1913ZM20.0389 9.41859L20.2524 9.54865V9.54865L20.0389 9.41859ZM20.4606 7.9804L20.7106 7.98623L20.7115 7.94598L20.6998 7.90747L20.4606 7.9804ZM19.274 5.22046L19.046 5.32297L19.046 5.32298L19.274 5.22046ZM18.5291 3.53858L18.7593 3.44107L18.6948 3.28858H18.5291V3.53858ZM5.51437 3.53858V3.28858H5.34981L5.28474 3.43973L5.51437 3.53858ZM4.75334 5.22647L4.52601 5.12243L4.52601 5.12244L4.75334 5.22647ZM4.7498 5.2342L4.52247 5.13017L4.52247 5.13017L4.7498 5.2342ZM12.9603 19.31V19.56H13.2103V19.31H12.9603ZM11.0371 19.31H10.7871V19.56H11.0371V19.31ZM4.94101 12.3525C5.40408 12.4984 5.90436 12.5708 6.43543 12.5708V12.0708C5.94988 12.0708 5.50075 12.0046 5.09119 11.8756L4.94101 12.3525ZM5.2661 20.4635V12.1141H4.7661V20.4635H5.2661ZM18.9872 20.2135H5.0161V20.7135H18.9872V20.2135ZM18.7372 12.1027V20.4635H19.2372V12.1027H18.7372ZM17.5785 12.5621C18.1057 12.5596 18.6027 12.4862 19.0625 12.3411L18.912 11.8642C18.5049 11.9927 18.0584 12.0598 17.5762 12.0621L17.5785 12.5621ZM14.6152 11.5132C15.4421 12.1878 16.4832 12.5621 17.5773 12.5621V12.0621C16.598 12.0621 15.6686 11.7273 14.9313 11.1258L14.6152 11.5132ZM12.0151 12.5642C13.0896 12.5556 14.1152 12.1803 14.9315 11.5131L14.6151 11.1259C13.8867 11.7213 12.9712 12.0566 12.0112 12.0642L12.0151 12.5642ZM9.07016 11.5161C9.89096 12.1834 10.9235 12.5574 12.0116 12.5642L12.0147 12.0642C11.0399 12.0581 10.1176 11.7233 9.38557 11.1282L9.07016 11.5161ZM6.43615 12.5708C7.52336 12.5676 8.56125 12.1907 9.3862 11.5156L9.06954 11.1287C8.33334 11.7311 7.40669 12.0679 6.4347 12.0708L6.43615 12.5708ZM3.64406 11.04C2.7686 10.2582 2.25139 9.13273 2.25 7.92526L1.75 7.92584C1.75156 9.27697 2.33056 10.5374 3.31102 11.413L3.64406 11.04ZM3.72754 20.4635V11.2265H3.22754V20.4635H3.72754ZM5.01612 21.752C4.30565 21.752 3.72754 21.1739 3.72754 20.4635H3.22754C3.22754 21.4501 4.0295 22.252 5.01612 22.252V21.752ZM18.9873 21.752H5.01612V22.252H18.9873V21.752ZM20.2758 20.4635C20.2758 21.174 19.6977 21.752 18.9873 21.752V22.252C19.9739 22.252 20.7758 21.4501 20.7758 20.4634L20.2758 20.4635ZM20.2758 11.2141V20.4635H20.7758V11.2141H20.2758ZM21.75 7.91413C21.7503 9.11638 21.2338 10.2442 20.359 11.0279L20.6926 11.4003C21.672 10.523 22.2503 9.26032 22.25 7.91402L21.75 7.91413ZM20.4494 4.69209C21.0512 6.0309 21.3796 6.77962 21.5575 7.23149C21.736 7.68465 21.7505 7.80982 21.75 7.91286L22.25 7.91529C22.251 7.71182 22.2054 7.51208 22.0228 7.04829C21.8396 6.5832 21.5059 5.82293 20.9054 4.48708L20.4494 4.69209ZM19.7151 3.03442C19.8911 3.45042 20.1637 4.05674 20.4494 4.69211L20.9054 4.48705C20.6187 3.84943 20.3488 3.2492 20.1755 2.83958L19.7151 3.03442ZM18.5292 2.25C19.048 2.25 19.5132 2.5579 19.7151 3.03452L20.1755 2.83948C19.8951 2.17759 19.2484 1.75 18.5292 1.75V2.25ZM5.51439 2.25H18.5292V1.75H5.51439V2.25ZM4.33206 3.0266C4.53475 2.55541 4.99866 2.25 5.51439 2.25V1.75C4.79956 1.75 4.15465 2.17371 3.87276 2.82902L4.33206 3.0266ZM3.61261 4.62283C3.89332 4.0092 4.15919 3.42804 4.33202 3.02669L3.87279 2.82894C3.70272 3.22388 3.43969 3.7989 3.15793 4.41483L3.61261 4.62283ZM3.58187 4.69003L3.61261 4.62282L3.15793 4.41483L3.12718 4.48203L3.58187 4.69003ZM2.25 7.92555C2.25 7.82174 2.26531 7.6958 2.44808 7.24059C2.63033 6.78669 2.96626 6.03473 3.58184 4.69009L3.12722 4.48196C2.51299 5.82364 2.17165 6.58715 1.98409 7.05429C1.79705 7.52013 1.75 7.7208 1.75 7.92555H2.25ZM4.75896 9.9689C4.16852 9.48686 3.8098 8.76829 3.7896 7.99097L3.28977 8.00396C3.31379 8.92801 3.74043 9.78283 4.44275 10.3562L4.75896 9.9689ZM4.98063 10.1383C4.90419 10.059 4.81494 9.99204 4.71608 9.94069L4.48563 10.3844C4.53591 10.4105 4.58153 10.4447 4.62069 10.4853L4.98063 10.1383ZM5.18877 10.2549C5.10303 10.2092 5.02055 10.1592 4.94152 10.1053L4.6598 10.5183C4.75373 10.5824 4.85171 10.6418 4.95346 10.6961L5.18877 10.2549ZM5.19896 10.2605L5.19151 10.2564L4.95072 10.6946L4.95817 10.6987L5.19896 10.2605ZM5.21359 10.2686L5.20035 10.2612L4.95678 10.6979L4.97002 10.7053L5.21359 10.2686ZM6.43318 10.5322C5.95029 10.5322 5.54048 10.439 5.20741 10.2653L4.9762 10.7086C5.39438 10.9267 5.88683 11.0322 6.43318 11.0322V10.5322ZM8.44631 9.59144C7.9461 10.187 7.21173 10.53 6.43246 10.5322L6.4339 11.0322C7.35997 11.0295 8.23403 10.6216 8.82918 9.91301L8.44631 9.59144ZM8.7957 9.32325C8.66103 9.38611 8.54175 9.47768 8.44623 9.59153L8.82926 9.91291C8.8779 9.85495 8.93863 9.80832 9.0072 9.77632L8.7957 9.32325ZM9.22577 9.22763C9.07715 9.22775 8.93036 9.26039 8.7957 9.32325L9.0072 9.77632C9.07576 9.74431 9.1505 9.72769 9.22617 9.72763L9.22577 9.22763ZM9.65657 9.3227C9.52169 9.25996 9.3742 9.22761 9.22594 9.22763L9.226 9.72763C9.30187 9.72762 9.37732 9.74425 9.44566 9.77604L9.65657 9.3227ZM10.0062 9.59027C9.91054 9.47666 9.79122 9.38534 9.65657 9.3227L9.44566 9.77604C9.51423 9.80794 9.575 9.85445 9.62371 9.9123L10.0062 9.59027ZM12.0135 10.5256C11.2336 10.5208 10.5024 10.1793 10.0062 9.59022L9.62375 9.91235C10.2153 10.6146 11.0858 11.0199 12.0105 11.0256L12.0135 10.5256ZM13.992 9.58852C13.4972 10.1781 12.7712 10.5195 12.01 10.5256L12.014 11.0256C12.9221 11.0183 13.7865 10.6113 14.375 9.90992L13.992 9.58852ZM15.5535 9.58783C15.1603 9.12092 14.3838 9.12089 13.9919 9.58867L14.3751 9.90977C14.567 9.68078 14.9774 9.67998 15.171 9.90988L15.5535 9.58783ZM17.5735 10.5236C16.7879 10.5236 16.0522 10.1822 15.5537 9.58816L15.1707 9.90955C15.7653 10.6182 16.6419 11.0236 17.5735 11.0236V10.5236ZM18.8342 10.2337C18.4944 10.42 18.0713 10.5211 17.5723 10.5236L17.5748 11.0236C18.1388 11.0208 18.6473 10.9063 19.0745 10.6722L18.8342 10.2337ZM19.1 10.0675C19.0151 10.1278 18.9265 10.1833 18.8345 10.2336L19.0742 10.6724C19.1835 10.6127 19.2889 10.5467 19.3899 10.4749L19.1 10.0675ZM19.2202 9.97879C19.1699 10.01 19.1225 10.0454 19.0786 10.0845L19.4113 10.4578C19.4337 10.4378 19.4579 10.4197 19.4836 10.4038L19.2202 9.97879ZM19.8254 9.28852C19.6596 9.56062 19.4467 9.79947 19.1977 9.99449L19.5061 10.3881C19.8021 10.1562 20.0553 9.8722 20.2524 9.54865L19.8254 9.28852ZM20.2107 7.97457C20.1999 8.43879 20.067 8.89197 19.8254 9.28852L20.2524 9.54865C20.5397 9.07711 20.6977 8.53823 20.7106 7.98623L20.2107 7.97457ZM19.046 5.32298C19.2615 5.80234 19.5292 6.39776 19.7571 6.91985C19.9883 7.4494 20.1698 7.88396 20.2215 8.05333L20.6998 7.90747C20.6376 7.70364 20.4413 7.23735 20.2153 6.7198C19.9861 6.19477 19.7174 5.59682 19.502 5.11794L19.046 5.32298ZM18.2989 3.63609C18.4783 4.05954 18.7554 4.67641 19.046 5.32297L19.502 5.11796C19.2105 4.46935 18.9361 3.85832 18.7593 3.44107L18.2989 3.63609ZM5.51437 3.78858H18.5291V3.28858H5.51437V3.78858ZM4.98066 5.3305C5.27839 4.67996 5.5623 4.05951 5.744 3.63743L5.28474 3.43973C5.10584 3.85532 4.82481 4.46956 4.52601 5.12243L4.98066 5.3305ZM4.97713 5.33823L4.98067 5.33049L4.52601 5.12244L4.52247 5.13017L4.97713 5.33823ZM3.77825 8.07221C3.83191 7.90092 4.01709 7.46604 4.2525 6.93659C4.48465 6.41446 4.75709 5.81907 4.97713 5.33822L4.52247 5.13017C4.30268 5.61049 4.02907 6.2084 3.79562 6.73345C3.56543 7.25117 3.36546 7.71734 3.30112 7.92272L3.77825 8.07221ZM12.9603 19.06H11.0371V19.56H12.9603V19.06ZM12.7103 15.4636V19.31H13.2103V15.4636H12.7103ZM12.191 14.9443C12.4778 14.9443 12.7103 15.1768 12.7103 15.4636H13.2103C13.2103 14.9007 12.754 14.4443 12.191 14.4443V14.9443ZM11.8064 14.9443H12.191V14.4443H11.8064V14.9443ZM11.2871 15.4636C11.2871 15.1768 11.5196 14.9443 11.8064 14.9443V14.4443C11.2435 14.4443 10.7871 14.9007 10.7871 15.4636H11.2871ZM11.2871 19.31V15.4636H10.7871V19.31H11.2871Z" fill="#FCF9F5"/>
</svg>
